<mxfile host="app.diagrams.net" modified="2022-03-28T03:48:28.793Z" agent="5.0 (Windows NT 10.0; Win64; x64) AppleWebKit/537.36 (KHTML, like Gecko) Chrome/99.0.4844.82 Safari/537.36" etag="Piv6Glfg9CR1EeKLpK4o" version="17.2.4" type="github">
  <diagram id="pesc5ZuLE12qNuX9gS1a" name="第 1 页">
    <mxGraphModel dx="860" dy="504" grid="1" gridSize="10" guides="1" tooltips="1" connect="1" arrows="1" fold="1" page="1" pageScale="1" pageWidth="827" pageHeight="1169" math="0" shadow="0">
      <root>
        <mxCell id="0" />
        <mxCell id="1" parent="0" />
        <mxCell id="q86BL1v4JnZUa4Sr2h56-1" value="电子税局" style="rounded=0;whiteSpace=wrap;html=1;verticalAlign=top;" vertex="1" parent="1">
          <mxGeometry x="160" y="40" width="280" height="280" as="geometry" />
        </mxCell>
        <mxCell id="q86BL1v4JnZUa4Sr2h56-3" value="纳税人" style="shape=umlActor;verticalLabelPosition=bottom;verticalAlign=top;html=1;outlineConnect=0;" vertex="1" parent="1">
          <mxGeometry x="40" y="168" width="30" height="60" as="geometry" />
        </mxCell>
        <mxCell id="q86BL1v4JnZUa4Sr2h56-4" value="填写申报表" style="ellipse;whiteSpace=wrap;html=1;aspect=fixed;fillColor=#dae8fc;strokeColor=#6c8ebf;" vertex="1" parent="1">
          <mxGeometry x="194" y="146" width="80" height="40" as="geometry" />
        </mxCell>
        <mxCell id="q86BL1v4JnZUa4Sr2h56-5" value="缴款" style="ellipse;whiteSpace=wrap;html=1;aspect=fixed;" vertex="1" parent="1">
          <mxGeometry x="194" y="260" width="80" height="40" as="geometry" />
        </mxCell>
        <mxCell id="q86BL1v4JnZUa4Sr2h56-6" value="登录" style="ellipse;whiteSpace=wrap;html=1;aspect=fixed;" vertex="1" parent="1">
          <mxGeometry x="194" y="89" width="80" height="40" as="geometry" />
        </mxCell>
        <mxCell id="q86BL1v4JnZUa4Sr2h56-7" value="保存申报表" style="ellipse;whiteSpace=wrap;html=1;aspect=fixed;" vertex="1" parent="1">
          <mxGeometry x="325" y="146" width="80" height="40" as="geometry" />
        </mxCell>
        <mxCell id="q86BL1v4JnZUa4Sr2h56-8" value="提交申报" style="ellipse;whiteSpace=wrap;html=1;aspect=fixed;fillColor=#dae8fc;strokeColor=#6c8ebf;" vertex="1" parent="1">
          <mxGeometry x="194" y="203" width="80" height="40" as="geometry" />
        </mxCell>
        <mxCell id="q86BL1v4JnZUa4Sr2h56-9" value="查询申报" style="ellipse;whiteSpace=wrap;html=1;aspect=fixed;fillColor=#dae8fc;strokeColor=#6c8ebf;" vertex="1" parent="1">
          <mxGeometry x="325" y="203" width="80" height="40" as="geometry" />
        </mxCell>
        <mxCell id="q86BL1v4JnZUa4Sr2h56-10" value="下载PDF" style="ellipse;whiteSpace=wrap;html=1;aspect=fixed;" vertex="1" parent="1">
          <mxGeometry x="325" y="260" width="80" height="40" as="geometry" />
        </mxCell>
        <mxCell id="q86BL1v4JnZUa4Sr2h56-11" value="注销" style="ellipse;whiteSpace=wrap;html=1;aspect=fixed;" vertex="1" parent="1">
          <mxGeometry x="325" y="89" width="80" height="40" as="geometry" />
        </mxCell>
        <mxCell id="q86BL1v4JnZUa4Sr2h56-16" value="" style="endArrow=open;endFill=1;endSize=12;html=1;rounded=0;exitX=1;exitY=0.3333333333333333;exitDx=0;exitDy=0;exitPerimeter=0;entryX=0;entryY=0.5;entryDx=0;entryDy=0;" edge="1" parent="1" source="q86BL1v4JnZUa4Sr2h56-3" target="q86BL1v4JnZUa4Sr2h56-6">
          <mxGeometry width="160" relative="1" as="geometry">
            <mxPoint x="60" y="260" as="sourcePoint" />
            <mxPoint x="220" y="260" as="targetPoint" />
          </mxGeometry>
        </mxCell>
        <mxCell id="q86BL1v4JnZUa4Sr2h56-17" value="" style="endArrow=open;endFill=1;endSize=12;html=1;rounded=0;entryX=0;entryY=0.5;entryDx=0;entryDy=0;exitX=1;exitY=0.3333333333333333;exitDx=0;exitDy=0;exitPerimeter=0;" edge="1" parent="1" source="q86BL1v4JnZUa4Sr2h56-3" target="q86BL1v4JnZUa4Sr2h56-4">
          <mxGeometry width="160" relative="1" as="geometry">
            <mxPoint x="70" y="160" as="sourcePoint" />
            <mxPoint x="196.10548131729786" y="129.62028252058008" as="targetPoint" />
          </mxGeometry>
        </mxCell>
        <mxCell id="q86BL1v4JnZUa4Sr2h56-18" value="" style="endArrow=open;endFill=1;endSize=12;html=1;rounded=0;entryX=0;entryY=0.5;entryDx=0;entryDy=0;exitX=1;exitY=0.3333333333333333;exitDx=0;exitDy=0;exitPerimeter=0;" edge="1" parent="1" source="q86BL1v4JnZUa4Sr2h56-3" target="q86BL1v4JnZUa4Sr2h56-8">
          <mxGeometry width="160" relative="1" as="geometry">
            <mxPoint x="80" y="170" as="sourcePoint" />
            <mxPoint x="190" y="176" as="targetPoint" />
          </mxGeometry>
        </mxCell>
        <mxCell id="q86BL1v4JnZUa4Sr2h56-19" value="" style="endArrow=open;endFill=1;endSize=12;html=1;rounded=0;entryX=0;entryY=0.5;entryDx=0;entryDy=0;exitX=1;exitY=0.3333333333333333;exitDx=0;exitDy=0;exitPerimeter=0;" edge="1" parent="1" source="q86BL1v4JnZUa4Sr2h56-3" target="q86BL1v4JnZUa4Sr2h56-5">
          <mxGeometry width="160" relative="1" as="geometry">
            <mxPoint x="90" y="180" as="sourcePoint" />
            <mxPoint x="120" y="300" as="targetPoint" />
          </mxGeometry>
        </mxCell>
        <mxCell id="q86BL1v4JnZUa4Sr2h56-29" value="纳税人" style="shape=umlActor;verticalLabelPosition=bottom;verticalAlign=top;html=1;outlineConnect=0;" vertex="1" parent="1">
          <mxGeometry x="599" y="168" width="30" height="60" as="geometry" />
        </mxCell>
        <mxCell id="q86BL1v4JnZUa4Sr2h56-31" value="" style="endArrow=open;endFill=1;endSize=12;html=1;rounded=0;exitX=0;exitY=0.3333333333333333;exitDx=0;exitDy=0;exitPerimeter=0;entryX=1;entryY=0.5;entryDx=0;entryDy=0;" edge="1" parent="1" source="q86BL1v4JnZUa4Sr2h56-29" target="q86BL1v4JnZUa4Sr2h56-11">
          <mxGeometry width="160" relative="1" as="geometry">
            <mxPoint x="80" y="198" as="sourcePoint" />
            <mxPoint x="190" y="119" as="targetPoint" />
          </mxGeometry>
        </mxCell>
        <mxCell id="q86BL1v4JnZUa4Sr2h56-32" value="" style="endArrow=open;endFill=1;endSize=12;html=1;rounded=0;exitX=0;exitY=0.3333333333333333;exitDx=0;exitDy=0;exitPerimeter=0;entryX=1;entryY=0.5;entryDx=0;entryDy=0;" edge="1" parent="1" source="q86BL1v4JnZUa4Sr2h56-29" target="q86BL1v4JnZUa4Sr2h56-7">
          <mxGeometry width="160" relative="1" as="geometry">
            <mxPoint x="490" y="198" as="sourcePoint" />
            <mxPoint x="360" y="119" as="targetPoint" />
          </mxGeometry>
        </mxCell>
        <mxCell id="q86BL1v4JnZUa4Sr2h56-33" value="" style="endArrow=open;endFill=1;endSize=12;html=1;rounded=0;exitX=0;exitY=0.3333333333333333;exitDx=0;exitDy=0;exitPerimeter=0;entryX=1;entryY=0.5;entryDx=0;entryDy=0;" edge="1" parent="1" source="q86BL1v4JnZUa4Sr2h56-29" target="q86BL1v4JnZUa4Sr2h56-9">
          <mxGeometry width="160" relative="1" as="geometry">
            <mxPoint x="500" y="208" as="sourcePoint" />
            <mxPoint x="360" y="176" as="targetPoint" />
          </mxGeometry>
        </mxCell>
        <mxCell id="q86BL1v4JnZUa4Sr2h56-34" value="" style="endArrow=open;endFill=1;endSize=12;html=1;rounded=0;exitX=0;exitY=0.3333333333333333;exitDx=0;exitDy=0;exitPerimeter=0;entryX=1;entryY=0.5;entryDx=0;entryDy=0;" edge="1" parent="1" source="q86BL1v4JnZUa4Sr2h56-29" target="q86BL1v4JnZUa4Sr2h56-10">
          <mxGeometry width="160" relative="1" as="geometry">
            <mxPoint x="510" y="218" as="sourcePoint" />
            <mxPoint x="360" y="233" as="targetPoint" />
          </mxGeometry>
        </mxCell>
        <mxCell id="q86BL1v4JnZUa4Sr2h56-116" value="电子税局" style="rounded=0;whiteSpace=wrap;html=1;verticalAlign=top;" vertex="1" parent="1">
          <mxGeometry x="160" y="564" width="280" height="280" as="geometry" />
        </mxCell>
        <mxCell id="q86BL1v4JnZUa4Sr2h56-117" value="纳税人" style="shape=umlActor;verticalLabelPosition=bottom;verticalAlign=top;html=1;outlineConnect=0;" vertex="1" parent="1">
          <mxGeometry x="40" y="692" width="30" height="60" as="geometry" />
        </mxCell>
        <mxCell id="q86BL1v4JnZUa4Sr2h56-118" value="填写申报表" style="ellipse;whiteSpace=wrap;html=1;aspect=fixed;fillColor=#dae8fc;strokeColor=#6c8ebf;" vertex="1" parent="1">
          <mxGeometry x="194" y="670" width="80" height="40" as="geometry" />
        </mxCell>
        <mxCell id="q86BL1v4JnZUa4Sr2h56-119" value="缴款" style="ellipse;whiteSpace=wrap;html=1;aspect=fixed;" vertex="1" parent="1">
          <mxGeometry x="194" y="784" width="80" height="40" as="geometry" />
        </mxCell>
        <mxCell id="q86BL1v4JnZUa4Sr2h56-120" value="登录" style="ellipse;whiteSpace=wrap;html=1;aspect=fixed;" vertex="1" parent="1">
          <mxGeometry x="194" y="613" width="80" height="40" as="geometry" />
        </mxCell>
        <mxCell id="q86BL1v4JnZUa4Sr2h56-121" value="保存申报表" style="ellipse;whiteSpace=wrap;html=1;aspect=fixed;fillColor=#dae8fc;strokeColor=#6c8ebf;" vertex="1" parent="1">
          <mxGeometry x="325" y="670" width="80" height="40" as="geometry" />
        </mxCell>
        <mxCell id="q86BL1v4JnZUa4Sr2h56-122" value="提交申报" style="ellipse;whiteSpace=wrap;html=1;aspect=fixed;fillColor=#dae8fc;strokeColor=#6c8ebf;" vertex="1" parent="1">
          <mxGeometry x="194" y="727" width="80" height="40" as="geometry" />
        </mxCell>
        <mxCell id="q86BL1v4JnZUa4Sr2h56-123" value="查询申报" style="ellipse;whiteSpace=wrap;html=1;aspect=fixed;" vertex="1" parent="1">
          <mxGeometry x="325" y="727" width="80" height="40" as="geometry" />
        </mxCell>
        <mxCell id="q86BL1v4JnZUa4Sr2h56-124" value="下载PDF" style="ellipse;whiteSpace=wrap;html=1;aspect=fixed;" vertex="1" parent="1">
          <mxGeometry x="325" y="784" width="80" height="40" as="geometry" />
        </mxCell>
        <mxCell id="q86BL1v4JnZUa4Sr2h56-125" value="注销" style="ellipse;whiteSpace=wrap;html=1;aspect=fixed;" vertex="1" parent="1">
          <mxGeometry x="325" y="613" width="80" height="40" as="geometry" />
        </mxCell>
        <mxCell id="q86BL1v4JnZUa4Sr2h56-126" value="" style="endArrow=open;endFill=1;endSize=12;html=1;rounded=0;exitX=1;exitY=0.3333333333333333;exitDx=0;exitDy=0;exitPerimeter=0;entryX=0;entryY=0.5;entryDx=0;entryDy=0;" edge="1" parent="1" source="q86BL1v4JnZUa4Sr2h56-117" target="q86BL1v4JnZUa4Sr2h56-120">
          <mxGeometry width="160" relative="1" as="geometry">
            <mxPoint x="60" y="784" as="sourcePoint" />
            <mxPoint x="220" y="784" as="targetPoint" />
          </mxGeometry>
        </mxCell>
        <mxCell id="q86BL1v4JnZUa4Sr2h56-127" value="" style="endArrow=open;endFill=1;endSize=12;html=1;rounded=0;entryX=0;entryY=0.5;entryDx=0;entryDy=0;exitX=1;exitY=0.3333333333333333;exitDx=0;exitDy=0;exitPerimeter=0;" edge="1" parent="1" source="q86BL1v4JnZUa4Sr2h56-117" target="q86BL1v4JnZUa4Sr2h56-118">
          <mxGeometry width="160" relative="1" as="geometry">
            <mxPoint x="70" y="684" as="sourcePoint" />
            <mxPoint x="196.10548131729786" y="653.6202825205801" as="targetPoint" />
          </mxGeometry>
        </mxCell>
        <mxCell id="q86BL1v4JnZUa4Sr2h56-128" value="" style="endArrow=open;endFill=1;endSize=12;html=1;rounded=0;entryX=0;entryY=0.5;entryDx=0;entryDy=0;exitX=1;exitY=0.3333333333333333;exitDx=0;exitDy=0;exitPerimeter=0;" edge="1" parent="1" source="q86BL1v4JnZUa4Sr2h56-117" target="q86BL1v4JnZUa4Sr2h56-122">
          <mxGeometry width="160" relative="1" as="geometry">
            <mxPoint x="80" y="694" as="sourcePoint" />
            <mxPoint x="190" y="700" as="targetPoint" />
          </mxGeometry>
        </mxCell>
        <mxCell id="q86BL1v4JnZUa4Sr2h56-129" value="" style="endArrow=open;endFill=1;endSize=12;html=1;rounded=0;entryX=0;entryY=0.5;entryDx=0;entryDy=0;exitX=1;exitY=0.3333333333333333;exitDx=0;exitDy=0;exitPerimeter=0;" edge="1" parent="1" source="q86BL1v4JnZUa4Sr2h56-117" target="q86BL1v4JnZUa4Sr2h56-119">
          <mxGeometry width="160" relative="1" as="geometry">
            <mxPoint x="90" y="704" as="sourcePoint" />
            <mxPoint x="120" y="824" as="targetPoint" />
          </mxGeometry>
        </mxCell>
        <mxCell id="q86BL1v4JnZUa4Sr2h56-130" value="纳税人" style="shape=umlActor;verticalLabelPosition=bottom;verticalAlign=top;html=1;outlineConnect=0;" vertex="1" parent="1">
          <mxGeometry x="599" y="692" width="30" height="60" as="geometry" />
        </mxCell>
        <mxCell id="q86BL1v4JnZUa4Sr2h56-131" value="" style="endArrow=open;endFill=1;endSize=12;html=1;rounded=0;exitX=0;exitY=0.3333333333333333;exitDx=0;exitDy=0;exitPerimeter=0;entryX=1;entryY=0.5;entryDx=0;entryDy=0;" edge="1" parent="1" source="q86BL1v4JnZUa4Sr2h56-130" target="q86BL1v4JnZUa4Sr2h56-125">
          <mxGeometry width="160" relative="1" as="geometry">
            <mxPoint x="80" y="722" as="sourcePoint" />
            <mxPoint x="190" y="643" as="targetPoint" />
          </mxGeometry>
        </mxCell>
        <mxCell id="q86BL1v4JnZUa4Sr2h56-132" value="" style="endArrow=open;endFill=1;endSize=12;html=1;rounded=0;exitX=0;exitY=0.3333333333333333;exitDx=0;exitDy=0;exitPerimeter=0;entryX=1;entryY=0.5;entryDx=0;entryDy=0;" edge="1" parent="1" source="q86BL1v4JnZUa4Sr2h56-130" target="q86BL1v4JnZUa4Sr2h56-121">
          <mxGeometry width="160" relative="1" as="geometry">
            <mxPoint x="490" y="722" as="sourcePoint" />
            <mxPoint x="360" y="643" as="targetPoint" />
          </mxGeometry>
        </mxCell>
        <mxCell id="q86BL1v4JnZUa4Sr2h56-133" value="" style="endArrow=open;endFill=1;endSize=12;html=1;rounded=0;exitX=0;exitY=0.3333333333333333;exitDx=0;exitDy=0;exitPerimeter=0;entryX=1;entryY=0.5;entryDx=0;entryDy=0;" edge="1" parent="1" source="q86BL1v4JnZUa4Sr2h56-130" target="q86BL1v4JnZUa4Sr2h56-123">
          <mxGeometry width="160" relative="1" as="geometry">
            <mxPoint x="500" y="732" as="sourcePoint" />
            <mxPoint x="360" y="700" as="targetPoint" />
          </mxGeometry>
        </mxCell>
        <mxCell id="q86BL1v4JnZUa4Sr2h56-134" value="" style="endArrow=open;endFill=1;endSize=12;html=1;rounded=0;exitX=0;exitY=0.3333333333333333;exitDx=0;exitDy=0;exitPerimeter=0;entryX=1;entryY=0.5;entryDx=0;entryDy=0;" edge="1" parent="1" source="q86BL1v4JnZUa4Sr2h56-130" target="q86BL1v4JnZUa4Sr2h56-124">
          <mxGeometry width="160" relative="1" as="geometry">
            <mxPoint x="510" y="742" as="sourcePoint" />
            <mxPoint x="360" y="757" as="targetPoint" />
          </mxGeometry>
        </mxCell>
        <mxCell id="q86BL1v4JnZUa4Sr2h56-135" value="机器人" style="shape=umlActor;verticalLabelPosition=bottom;verticalAlign=top;html=1;outlineConnect=0;" vertex="1" parent="1">
          <mxGeometry x="285" y="404" width="30" height="60" as="geometry" />
        </mxCell>
        <mxCell id="q86BL1v4JnZUa4Sr2h56-136" value="" style="endArrow=open;endFill=1;endSize=12;html=1;rounded=0;exitX=0.5;exitY=0.5;exitDx=0;exitDy=0;exitPerimeter=0;edgeStyle=orthogonalEdgeStyle;dashed=1;entryX=1;entryY=0.5;entryDx=0;entryDy=0;fillColor=#dae8fc;strokeColor=#6c8ebf;" edge="1" parent="1" source="q86BL1v4JnZUa4Sr2h56-135" target="q86BL1v4JnZUa4Sr2h56-120">
          <mxGeometry width="160" relative="1" as="geometry">
            <mxPoint x="50" y="509" as="sourcePoint" />
            <mxPoint x="174" y="430" as="targetPoint" />
            <Array as="points">
              <mxPoint x="300" y="633" />
            </Array>
          </mxGeometry>
        </mxCell>
        <mxCell id="q86BL1v4JnZUa4Sr2h56-137" value="" style="endArrow=open;endFill=1;endSize=12;html=1;rounded=0;exitX=0.5;exitY=0;exitDx=0;exitDy=0;exitPerimeter=0;edgeStyle=orthogonalEdgeStyle;entryX=1;entryY=0.5;entryDx=0;entryDy=0;dashed=1;fillColor=#dae8fc;strokeColor=#6c8ebf;" edge="1" parent="1" source="q86BL1v4JnZUa4Sr2h56-135" target="q86BL1v4JnZUa4Sr2h56-6">
          <mxGeometry width="160" relative="1" as="geometry">
            <mxPoint x="310" y="444" as="sourcePoint" />
            <mxPoint x="470" y="410" as="targetPoint" />
            <Array as="points">
              <mxPoint x="300" y="109" />
            </Array>
          </mxGeometry>
        </mxCell>
        <mxCell id="q86BL1v4JnZUa4Sr2h56-140" value="" style="endArrow=open;endFill=1;endSize=12;html=1;rounded=0;exitX=0.5;exitY=0;exitDx=0;exitDy=0;exitPerimeter=0;edgeStyle=orthogonalEdgeStyle;entryX=1;entryY=0.5;entryDx=0;entryDy=0;dashed=1;fillColor=#dae8fc;strokeColor=#6c8ebf;" edge="1" parent="1" source="q86BL1v4JnZUa4Sr2h56-135" target="q86BL1v4JnZUa4Sr2h56-5">
          <mxGeometry width="160" relative="1" as="geometry">
            <mxPoint x="300" y="415" as="sourcePoint" />
            <mxPoint x="274.0000000000015" y="119.99999999999994" as="targetPoint" />
            <Array as="points" />
          </mxGeometry>
        </mxCell>
        <mxCell id="q86BL1v4JnZUa4Sr2h56-141" value="" style="endArrow=open;endFill=1;endSize=12;html=1;rounded=0;exitX=0.5;exitY=0;exitDx=0;exitDy=0;exitPerimeter=0;edgeStyle=orthogonalEdgeStyle;entryX=1;entryY=0.5;entryDx=0;entryDy=0;dashed=1;fillColor=#dae8fc;strokeColor=#6c8ebf;" edge="1" parent="1" source="q86BL1v4JnZUa4Sr2h56-135" target="q86BL1v4JnZUa4Sr2h56-8">
          <mxGeometry width="160" relative="1" as="geometry">
            <mxPoint x="310" y="414" as="sourcePoint" />
            <mxPoint x="284.0000000000015" y="290" as="targetPoint" />
            <Array as="points" />
          </mxGeometry>
        </mxCell>
        <mxCell id="q86BL1v4JnZUa4Sr2h56-142" value="" style="endArrow=open;endFill=1;endSize=12;html=1;rounded=0;exitX=0.5;exitY=0;exitDx=0;exitDy=0;exitPerimeter=0;edgeStyle=orthogonalEdgeStyle;entryX=1;entryY=0.5;entryDx=0;entryDy=0;dashed=1;fillColor=#dae8fc;strokeColor=#6c8ebf;" edge="1" parent="1" source="q86BL1v4JnZUa4Sr2h56-135" target="q86BL1v4JnZUa4Sr2h56-4">
          <mxGeometry width="160" relative="1" as="geometry">
            <mxPoint x="310" y="414" as="sourcePoint" />
            <mxPoint x="284.0000000000015" y="290" as="targetPoint" />
            <Array as="points" />
          </mxGeometry>
        </mxCell>
        <mxCell id="q86BL1v4JnZUa4Sr2h56-143" value="" style="endArrow=open;endFill=1;endSize=12;html=1;rounded=0;exitX=0.5;exitY=0;exitDx=0;exitDy=0;exitPerimeter=0;edgeStyle=orthogonalEdgeStyle;entryX=0;entryY=0.5;entryDx=0;entryDy=0;dashed=1;fillColor=#dae8fc;strokeColor=#6c8ebf;" edge="1" parent="1" source="q86BL1v4JnZUa4Sr2h56-135" target="q86BL1v4JnZUa4Sr2h56-11">
          <mxGeometry width="160" relative="1" as="geometry">
            <mxPoint x="310" y="414" as="sourcePoint" />
            <mxPoint x="284" y="176" as="targetPoint" />
            <Array as="points">
              <mxPoint x="300" y="109" />
            </Array>
          </mxGeometry>
        </mxCell>
        <mxCell id="q86BL1v4JnZUa4Sr2h56-144" value="" style="endArrow=open;endFill=1;endSize=12;html=1;rounded=0;exitX=0.5;exitY=0;exitDx=0;exitDy=0;exitPerimeter=0;edgeStyle=orthogonalEdgeStyle;entryX=0;entryY=0.5;entryDx=0;entryDy=0;dashed=1;fillColor=#dae8fc;strokeColor=#6c8ebf;" edge="1" parent="1" source="q86BL1v4JnZUa4Sr2h56-135" target="q86BL1v4JnZUa4Sr2h56-7">
          <mxGeometry width="160" relative="1" as="geometry">
            <mxPoint x="310" y="414" as="sourcePoint" />
            <mxPoint x="335" y="119" as="targetPoint" />
            <Array as="points">
              <mxPoint x="300" y="166" />
            </Array>
          </mxGeometry>
        </mxCell>
        <mxCell id="q86BL1v4JnZUa4Sr2h56-145" value="" style="endArrow=open;endFill=1;endSize=12;html=1;rounded=0;exitX=0.5;exitY=0;exitDx=0;exitDy=0;exitPerimeter=0;edgeStyle=orthogonalEdgeStyle;entryX=0;entryY=0.5;entryDx=0;entryDy=0;dashed=1;fillColor=#dae8fc;strokeColor=#6c8ebf;" edge="1" parent="1" source="q86BL1v4JnZUa4Sr2h56-135" target="q86BL1v4JnZUa4Sr2h56-9">
          <mxGeometry width="160" relative="1" as="geometry">
            <mxPoint x="310" y="414" as="sourcePoint" />
            <mxPoint x="335" y="176" as="targetPoint" />
            <Array as="points">
              <mxPoint x="300" y="223" />
            </Array>
          </mxGeometry>
        </mxCell>
        <mxCell id="q86BL1v4JnZUa4Sr2h56-146" value="" style="endArrow=open;endFill=1;endSize=12;html=1;rounded=0;exitX=0.5;exitY=0;exitDx=0;exitDy=0;exitPerimeter=0;edgeStyle=orthogonalEdgeStyle;entryX=0;entryY=0.5;entryDx=0;entryDy=0;dashed=1;fillColor=#dae8fc;strokeColor=#6c8ebf;" edge="1" parent="1" source="q86BL1v4JnZUa4Sr2h56-135" target="q86BL1v4JnZUa4Sr2h56-10">
          <mxGeometry width="160" relative="1" as="geometry">
            <mxPoint x="310" y="414" as="sourcePoint" />
            <mxPoint x="335" y="233" as="targetPoint" />
            <Array as="points">
              <mxPoint x="300" y="280" />
            </Array>
          </mxGeometry>
        </mxCell>
        <mxCell id="q86BL1v4JnZUa4Sr2h56-147" value="" style="endArrow=open;endFill=1;endSize=12;html=1;rounded=0;exitX=0.5;exitY=0.5;exitDx=0;exitDy=0;exitPerimeter=0;edgeStyle=orthogonalEdgeStyle;dashed=1;entryX=1;entryY=0.5;entryDx=0;entryDy=0;fillColor=#dae8fc;strokeColor=#6c8ebf;" edge="1" parent="1" source="q86BL1v4JnZUa4Sr2h56-135" target="q86BL1v4JnZUa4Sr2h56-118">
          <mxGeometry width="160" relative="1" as="geometry">
            <mxPoint x="310" y="444" as="sourcePoint" />
            <mxPoint x="284" y="643" as="targetPoint" />
            <Array as="points">
              <mxPoint x="300" y="690" />
            </Array>
          </mxGeometry>
        </mxCell>
        <mxCell id="q86BL1v4JnZUa4Sr2h56-148" value="" style="endArrow=open;endFill=1;endSize=12;html=1;rounded=0;exitX=0.5;exitY=0.5;exitDx=0;exitDy=0;exitPerimeter=0;edgeStyle=orthogonalEdgeStyle;dashed=1;entryX=1;entryY=0.5;entryDx=0;entryDy=0;fillColor=#dae8fc;strokeColor=#6c8ebf;" edge="1" parent="1" source="q86BL1v4JnZUa4Sr2h56-135" target="q86BL1v4JnZUa4Sr2h56-119">
          <mxGeometry width="160" relative="1" as="geometry">
            <mxPoint x="310" y="444" as="sourcePoint" />
            <mxPoint x="284" y="700" as="targetPoint" />
            <Array as="points">
              <mxPoint x="300" y="804" />
            </Array>
          </mxGeometry>
        </mxCell>
        <mxCell id="q86BL1v4JnZUa4Sr2h56-149" value="" style="endArrow=open;endFill=1;endSize=12;html=1;rounded=0;exitX=0.5;exitY=0.5;exitDx=0;exitDy=0;exitPerimeter=0;edgeStyle=orthogonalEdgeStyle;dashed=1;entryX=1;entryY=0.5;entryDx=0;entryDy=0;fillColor=#dae8fc;strokeColor=#6c8ebf;" edge="1" parent="1" source="q86BL1v4JnZUa4Sr2h56-135" target="q86BL1v4JnZUa4Sr2h56-122">
          <mxGeometry width="160" relative="1" as="geometry">
            <mxPoint x="310" y="444" as="sourcePoint" />
            <mxPoint x="284" y="814" as="targetPoint" />
            <Array as="points">
              <mxPoint x="300" y="747" />
            </Array>
          </mxGeometry>
        </mxCell>
        <mxCell id="q86BL1v4JnZUa4Sr2h56-150" value="" style="endArrow=open;endFill=1;endSize=12;html=1;rounded=0;exitX=0.5;exitY=0.5;exitDx=0;exitDy=0;exitPerimeter=0;edgeStyle=orthogonalEdgeStyle;dashed=1;entryX=0;entryY=0.5;entryDx=0;entryDy=0;fillColor=#dae8fc;strokeColor=#6c8ebf;" edge="1" parent="1" source="q86BL1v4JnZUa4Sr2h56-135" target="q86BL1v4JnZUa4Sr2h56-125">
          <mxGeometry width="160" relative="1" as="geometry">
            <mxPoint x="311" y="444" as="sourcePoint" />
            <mxPoint x="284.9999999999998" y="643" as="targetPoint" />
            <Array as="points">
              <mxPoint x="300" y="633" />
            </Array>
          </mxGeometry>
        </mxCell>
        <mxCell id="q86BL1v4JnZUa4Sr2h56-151" value="" style="endArrow=open;endFill=1;endSize=12;html=1;rounded=0;exitX=0.5;exitY=0.5;exitDx=0;exitDy=0;exitPerimeter=0;edgeStyle=orthogonalEdgeStyle;dashed=1;entryX=0;entryY=0.5;entryDx=0;entryDy=0;fillColor=#dae8fc;strokeColor=#6c8ebf;" edge="1" parent="1" source="q86BL1v4JnZUa4Sr2h56-135" target="q86BL1v4JnZUa4Sr2h56-121">
          <mxGeometry width="160" relative="1" as="geometry">
            <mxPoint x="311" y="444" as="sourcePoint" />
            <mxPoint x="284.9999999999998" y="700" as="targetPoint" />
            <Array as="points">
              <mxPoint x="300" y="690" />
            </Array>
          </mxGeometry>
        </mxCell>
        <mxCell id="q86BL1v4JnZUa4Sr2h56-152" value="" style="endArrow=open;endFill=1;endSize=12;html=1;rounded=0;exitX=0.5;exitY=0.5;exitDx=0;exitDy=0;exitPerimeter=0;edgeStyle=orthogonalEdgeStyle;dashed=1;entryX=0;entryY=0.5;entryDx=0;entryDy=0;fillColor=#dae8fc;strokeColor=#6c8ebf;" edge="1" parent="1" source="q86BL1v4JnZUa4Sr2h56-135" target="q86BL1v4JnZUa4Sr2h56-124">
          <mxGeometry width="160" relative="1" as="geometry">
            <mxPoint x="311" y="444" as="sourcePoint" />
            <mxPoint x="284.9999999999998" y="814" as="targetPoint" />
            <Array as="points">
              <mxPoint x="300" y="804" />
            </Array>
          </mxGeometry>
        </mxCell>
        <mxCell id="q86BL1v4JnZUa4Sr2h56-153" value="" style="endArrow=open;endFill=1;endSize=12;html=1;rounded=0;exitX=0.5;exitY=0.5;exitDx=0;exitDy=0;exitPerimeter=0;edgeStyle=orthogonalEdgeStyle;dashed=1;entryX=0;entryY=0.5;entryDx=0;entryDy=0;fillColor=#dae8fc;strokeColor=#6c8ebf;" edge="1" parent="1" source="q86BL1v4JnZUa4Sr2h56-135" target="q86BL1v4JnZUa4Sr2h56-123">
          <mxGeometry width="160" relative="1" as="geometry">
            <mxPoint x="311" y="444" as="sourcePoint" />
            <mxPoint x="284.9999999999998" y="757" as="targetPoint" />
            <Array as="points">
              <mxPoint x="300" y="747" />
            </Array>
          </mxGeometry>
        </mxCell>
        <mxCell id="q86BL1v4JnZUa4Sr2h56-154" value="电子税局" style="swimlane;whiteSpace=wrap;startSize=23;" vertex="1" parent="1">
          <mxGeometry x="23" y="920" width="260" height="692" as="geometry" />
        </mxCell>
        <mxCell id="q86BL1v4JnZUa4Sr2h56-157" value="创建edf_rpa_user_task" style="" vertex="1" parent="q86BL1v4JnZUa4Sr2h56-154">
          <mxGeometry x="75" y="110" width="130" height="30" as="geometry" />
        </mxCell>
        <mxCell id="q86BL1v4JnZUa4Sr2h56-158" value="" style="endArrow=open;strokeColor=#FF0000;endFill=1;rounded=0;entryX=0.496;entryY=0.029;entryDx=0;entryDy=0;entryPerimeter=0;exitX=0.504;exitY=0.7;exitDx=0;exitDy=0;exitPerimeter=0;" edge="1" parent="q86BL1v4JnZUa4Sr2h56-154" source="q86BL1v4JnZUa4Sr2h56-163" target="q86BL1v4JnZUa4Sr2h56-161">
          <mxGeometry relative="1" as="geometry" />
        </mxCell>
        <mxCell id="q86BL1v4JnZUa4Sr2h56-161" value="查询申报表取数" style="" vertex="1" parent="q86BL1v4JnZUa4Sr2h56-154">
          <mxGeometry x="75" y="266" width="130" height="30" as="geometry" />
        </mxCell>
        <mxCell id="q86BL1v4JnZUa4Sr2h56-163" value="登录" style="" vertex="1" parent="q86BL1v4JnZUa4Sr2h56-154">
          <mxGeometry x="75" y="110" width="130" height="30" as="geometry" />
        </mxCell>
        <mxCell id="q86BL1v4JnZUa4Sr2h56-173" value="EBC tax" style="swimlane;whiteSpace=wrap;startSize=23;" vertex="1" parent="1">
          <mxGeometry x="283" y="920" width="260" height="692" as="geometry" />
        </mxCell>
        <mxCell id="q86BL1v4JnZUa4Sr2h56-174" value="" style="ellipse;shape=startState;fillColor=#000000;strokeColor=#ff0000;" vertex="1" parent="q86BL1v4JnZUa4Sr2h56-173">
          <mxGeometry x="125" y="40" width="30" height="30" as="geometry" />
        </mxCell>
        <mxCell id="q86BL1v4JnZUa4Sr2h56-175" value="" style="edgeStyle=elbowEdgeStyle;elbow=horizontal;verticalAlign=bottom;endArrow=open;endSize=8;strokeColor=#FF0000;endFill=1;rounded=0;entryX=0.486;entryY=-0.032;entryDx=0;entryDy=0;entryPerimeter=0;" edge="1" parent="q86BL1v4JnZUa4Sr2h56-173" source="q86BL1v4JnZUa4Sr2h56-174" target="q86BL1v4JnZUa4Sr2h56-182">
          <mxGeometry x="100" y="40" as="geometry">
            <mxPoint x="115" y="110" as="targetPoint" />
          </mxGeometry>
        </mxCell>
        <mxCell id="q86BL1v4JnZUa4Sr2h56-176" value="创建edf_rpa_user_task" style="" vertex="1" parent="q86BL1v4JnZUa4Sr2h56-173">
          <mxGeometry x="75" y="110" width="130" height="30" as="geometry" />
        </mxCell>
        <mxCell id="q86BL1v4JnZUa4Sr2h56-177" value="" style="endArrow=open;strokeColor=#FF0000;endFill=1;rounded=0;entryX=0.496;entryY=0.029;entryDx=0;entryDy=0;entryPerimeter=0;" edge="1" parent="q86BL1v4JnZUa4Sr2h56-173" target="q86BL1v4JnZUa4Sr2h56-180">
          <mxGeometry relative="1" as="geometry">
            <mxPoint x="139" y="190" as="sourcePoint" />
          </mxGeometry>
        </mxCell>
        <mxCell id="q86BL1v4JnZUa4Sr2h56-178" value="" style="endArrow=open;strokeColor=#FF0000;endFill=1;rounded=0;entryX=0.496;entryY=0.051;entryDx=0;entryDy=0;entryPerimeter=0;" edge="1" parent="q86BL1v4JnZUa4Sr2h56-173" source="q86BL1v4JnZUa4Sr2h56-180" target="q86BL1v4JnZUa4Sr2h56-184">
          <mxGeometry relative="1" as="geometry">
            <mxPoint x="140.5" y="252" as="targetPoint" />
          </mxGeometry>
        </mxCell>
        <mxCell id="q86BL1v4JnZUa4Sr2h56-179" value="提交申报表" style="" vertex="1" parent="q86BL1v4JnZUa4Sr2h56-173">
          <mxGeometry x="75" y="465" width="130" height="30" as="geometry" />
        </mxCell>
        <mxCell id="q86BL1v4JnZUa4Sr2h56-180" value="加载税局数据" style="" vertex="1" parent="q86BL1v4JnZUa4Sr2h56-173">
          <mxGeometry x="75" y="267" width="130" height="30" as="geometry" />
        </mxCell>
        <mxCell id="q86BL1v4JnZUa4Sr2h56-183" value="" style="endArrow=open;strokeColor=#FF0000;endFill=1;rounded=0;" edge="1" parent="q86BL1v4JnZUa4Sr2h56-173">
          <mxGeometry relative="1" as="geometry">
            <mxPoint x="139.5" y="403" as="targetPoint" />
            <mxPoint x="139.81" y="352.2399999999999" as="sourcePoint" />
          </mxGeometry>
        </mxCell>
        <mxCell id="q86BL1v4JnZUa4Sr2h56-184" value="填写申报表" style="" vertex="1" parent="q86BL1v4JnZUa4Sr2h56-173">
          <mxGeometry x="75" y="343" width="130" height="30" as="geometry" />
        </mxCell>
        <mxCell id="q86BL1v4JnZUa4Sr2h56-185" value="" style="endArrow=open;strokeColor=#FF0000;endFill=1;rounded=0;" edge="1" parent="q86BL1v4JnZUa4Sr2h56-173">
          <mxGeometry relative="1" as="geometry">
            <mxPoint x="139.5" y="463" as="targetPoint" />
            <mxPoint x="139.59999999999997" y="422.9999999999998" as="sourcePoint" />
          </mxGeometry>
        </mxCell>
        <mxCell id="q86BL1v4JnZUa4Sr2h56-186" value="保存申报表" style="" vertex="1" parent="q86BL1v4JnZUa4Sr2h56-173">
          <mxGeometry x="75" y="404" width="130" height="30" as="geometry" />
        </mxCell>
        <mxCell id="q86BL1v4JnZUa4Sr2h56-182" value="打开申报表" style="" vertex="1" parent="q86BL1v4JnZUa4Sr2h56-173">
          <mxGeometry x="75" y="110" width="130" height="30" as="geometry" />
        </mxCell>
        <mxCell id="q86BL1v4JnZUa4Sr2h56-213" value="加载模板" style="" vertex="1" parent="q86BL1v4JnZUa4Sr2h56-173">
          <mxGeometry x="75" y="180" width="130" height="30" as="geometry" />
        </mxCell>
        <mxCell id="q86BL1v4JnZUa4Sr2h56-192" value="报表服务" style="swimlane;whiteSpace=wrap;startSize=23;" vertex="1" parent="1">
          <mxGeometry x="543" y="920" width="260" height="692" as="geometry" />
        </mxCell>
        <mxCell id="q86BL1v4JnZUa4Sr2h56-195" value="创建edf_rpa_user_task" style="" vertex="1" parent="q86BL1v4JnZUa4Sr2h56-192">
          <mxGeometry x="75" y="110" width="130" height="30" as="geometry" />
        </mxCell>
        <mxCell id="q86BL1v4JnZUa4Sr2h56-199" value="创建edf_rpa_task" style="" vertex="1" parent="q86BL1v4JnZUa4Sr2h56-192">
          <mxGeometry x="65" y="350" width="130" height="30" as="geometry" />
        </mxCell>
        <mxCell id="q86BL1v4JnZUa4Sr2h56-201" value="查询申报表模板" style="" vertex="1" parent="q86BL1v4JnZUa4Sr2h56-192">
          <mxGeometry x="75" y="110" width="130" height="30" as="geometry" />
        </mxCell>
        <mxCell id="q86BL1v4JnZUa4Sr2h56-210" value="" style="endArrow=open;strokeColor=#FF0000;endFill=1;rounded=0;" edge="1" parent="1">
          <mxGeometry relative="1" as="geometry">
            <mxPoint x="230" y="1202" as="sourcePoint" />
            <mxPoint x="360" y="1202" as="targetPoint" />
          </mxGeometry>
        </mxCell>
        <mxCell id="q86BL1v4JnZUa4Sr2h56-197" value="" style="endArrow=open;strokeColor=#FF0000;endFill=1;rounded=0;edgeStyle=orthogonalEdgeStyle;" edge="1" parent="1">
          <mxGeometry relative="1" as="geometry">
            <mxPoint x="490" y="1117" as="targetPoint" />
            <mxPoint x="683" y="1060" as="sourcePoint" />
            <Array as="points">
              <mxPoint x="683" y="1117" />
            </Array>
          </mxGeometry>
        </mxCell>
        <mxCell id="q86BL1v4JnZUa4Sr2h56-211" value="" style="endArrow=open;strokeColor=#FF0000;endFill=1;rounded=0;exitX=1.01;exitY=0.501;exitDx=0;exitDy=0;exitPerimeter=0;entryX=0.015;entryY=0.501;entryDx=0;entryDy=0;entryPerimeter=0;" edge="1" parent="1" source="q86BL1v4JnZUa4Sr2h56-182" target="q86BL1v4JnZUa4Sr2h56-201">
          <mxGeometry relative="1" as="geometry">
            <mxPoint x="433.52" y="1060.9999999999998" as="sourcePoint" />
            <mxPoint x="520" y="1090" as="targetPoint" />
          </mxGeometry>
        </mxCell>
        <mxCell id="q86BL1v4JnZUa4Sr2h56-212" value="" style="endArrow=open;strokeColor=#FF0000;endFill=1;rounded=0;exitX=-0.009;exitY=0.474;exitDx=0;exitDy=0;exitPerimeter=0;" edge="1" parent="1" source="q86BL1v4JnZUa4Sr2h56-182">
          <mxGeometry relative="1" as="geometry">
            <mxPoint x="360" y="1045" as="sourcePoint" />
            <mxPoint x="230" y="1045" as="targetPoint" />
          </mxGeometry>
        </mxCell>
      </root>
    </mxGraphModel>
  </diagram>
</mxfile>
